<svg width="67" height="56" fill="none" xmlns="http://www.w3.org/2000/svg"><path fill-rule="evenodd" clip-rule="evenodd" d="M26.463 52.033C23.641 54.678 19.911 56 15.273 56c-4.738 0-8.468-1.475-11.19-4.425C1.36 48.625 0 44.455 0 39.063 0 35.4.857 31.23 2.57 26.55c1.715-4.679 4.008-9.358 6.881-14.038S15.626 3.662 19.356 0H31c-1.714 4.069-3.024 7.782-3.932 11.139-.907 3.357-1.36 6.409-1.36 9.155 0 3.154.403 5.85 1.21 8.087a197.371 197.371 0 0 0 2.494 6.562c.857 2.136 1.286 4.68 1.286 7.63 0 3.661-1.412 6.815-4.235 9.46Zm36 0C59.641 54.678 55.911 56 51.273 56c-4.738 0-8.468-1.475-11.19-4.425C37.36 48.625 36 44.455 36 39.063c0-3.663.857-7.833 2.57-12.513 1.715-4.679 4.008-9.358 6.881-14.038S51.626 3.662 55.356 0H67c-1.714 4.069-3.024 7.782-3.932 11.139-.907 3.357-1.36 6.409-1.36 9.155 0 3.154.403 5.85 1.21 8.087a197.371 197.371 0 0 0 2.494 6.562c.857 2.136 1.286 4.68 1.286 7.63 0 3.661-1.412 6.815-4.235 9.46Z" fill="#2C6269"/></svg>